HIERARCHY
ROOT joint_Root
{
	OFFSET 0.0 0.0 0.0
	CHANNELS 6 Xposition Yposition Zposition Zrotation Xrotation Yrotation 
	JOINT Hips
	{
		OFFSET -17.1583 93.1646 452.98
		CHANNELS 6 Xposition Yposition Zposition Zrotation Xrotation Yrotation 
		JOINT Spine
		{
			OFFSET 15.7357 0.0 0.0
			CHANNELS 6 Xposition Yposition Zposition Zrotation Xrotation Yrotation 
			JOINT Chest
			{
				OFFSET 8.98455 -0.406207 0.0
				CHANNELS 6 Xposition Yposition Zposition Zrotation Xrotation Yrotation 
				JOINT Neck
				{
					OFFSET 16.3773 0.0 0.0
					CHANNELS 6 Xposition Yposition Zposition Zrotation Xrotation Yrotation 
					JOINT Head
					{
						OFFSET 6.45672 0.0 0.0
						CHANNELS 6 Xposition Yposition Zposition Zrotation Xrotation Yrotation 
						End Site
						{
							OFFSET 0.0 0.0 0.0
						}
					}
				}
				JOINT Shoulder_L
				{
					OFFSET 12.9942 -0.242716 4.98039
					CHANNELS 6 Xposition Yposition Zposition Zrotation Xrotation Yrotation 
					JOINT UpperArm_L
					{
						OFFSET 5.34809 0.0 0.0
						CHANNELS 6 Xposition Yposition Zposition Zrotation Xrotation Yrotation 
						JOINT LowerArm_L
						{
							OFFSET 24.3286 1.87007e-05 0.0
							CHANNELS 6 Xposition Yposition Zposition Zrotation Xrotation Yrotation 
							JOINT Hand_L
							{
								OFFSET 22.2916 0.0 0.0
								CHANNELS 6 Xposition Yposition Zposition Zrotation Xrotation Yrotation 
								End Site
								{
									OFFSET 0.0 0.0 0.0
								}
							}
						}
					}
				}
				JOINT Shoulder_R
				{
					OFFSET 12.9945 -0.242716 -4.98039
					CHANNELS 6 Xposition Yposition Zposition Zrotation Xrotation Yrotation 
					JOINT UpperArm_R
					{
						OFFSET -5.34813 0.0 0.0
						CHANNELS 6 Xposition Yposition Zposition Zrotation Xrotation Yrotation 
						JOINT LowerArm_R
						{
							OFFSET -24.3289 0.000322201 0.0
							CHANNELS 6 Xposition Yposition Zposition Zrotation Xrotation Yrotation 
							JOINT Hand_R
							{
								OFFSET -22.2915 -0.000108084 0.0
								CHANNELS 6 Xposition Yposition Zposition Zrotation Xrotation Yrotation 
								End Site
								{
									OFFSET 0.0 0.0 0.0
								}
							}
						}
					}
				}
			}
		}
		JOINT UpperLeg_L
		{
			OFFSET -2.19248 -6.46944 0.0
			CHANNELS 6 Xposition Yposition Zposition Zrotation Xrotation Yrotation 
			JOINT LowerLeg_L
			{
				OFFSET 39.0811 0.0 -1.23785e-05
				CHANNELS 6 Xposition Yposition Zposition Zrotation Xrotation Yrotation 
				JOINT Foot_L
				{
					OFFSET 40.9854 0.0 -1.26872e-05
					CHANNELS 6 Xposition Yposition Zposition Zrotation Xrotation Yrotation 
					JOINT Toes_L
					{
						OFFSET 11.7543 0.0 0.0
						CHANNELS 6 Xposition Yposition Zposition Zrotation Xrotation Yrotation 
						End Site
						{
							OFFSET 0.0 0.0 0.0
						}
					}
				}
			}
		}
		JOINT UpperLeg_R
		{
			OFFSET -2.19251 6.46944 0.0
			CHANNELS 6 Xposition Yposition Zposition Zrotation Xrotation Yrotation 
			JOINT LowerLeg_R
			{
				OFFSET -39.0811 -0.00228153 -0.0401928
				CHANNELS 6 Xposition Yposition Zposition Zrotation Xrotation Yrotation 
				JOINT Foot_R
				{
					OFFSET -40.9854 0.0 0.0
					CHANNELS 6 Xposition Yposition Zposition Zrotation Xrotation Yrotation 
					JOINT Toes_R
					{
						OFFSET -11.7543 0.0 0.0
						CHANNELS 6 Xposition Yposition Zposition Zrotation Xrotation Yrotation 
						End Site
						{
							OFFSET 0.0 0.0 0.0
						}
					}
				}
			}
		}
	}
}
MOTION
Frames:	4
Frame Time:	0.0333333
0.000000 0.000000 0.000000 0.000000 0.000000 -0.000000 -3.976410 89.744600 518.941000 -92.248700 14.513200 176.074000 15.735700 0.000005 -0.000001 122.035000 86.785500 -122.386000 8.984550 -0.406207 -0.000000 -2.306930 3.440050 -0.633016 16.377300 -0.000001 -0.000001 3.472110 6.215810 -2.401700 6.456720 -0.000001 -0.000000 1.599720 5.722310 -3.902680 12.994200 -0.242716 4.980390 -93.289500 8.011600 -67.589400 5.348090 -0.000007 -0.000001 -70.769300 -5.983350 9.805970 24.328600 0.000019 0.000005 8.514350 23.037600 -20.934400 22.291600 -0.000001 0.000005 48.102800 4.571620 15.399800 12.994500 -0.242716 -4.980390 88.957300 3.856920 -74.859600 -5.348130 -0.000001 -0.000004 -74.770900 26.081100 -10.477700 -24.328900 0.000322 -0.000009 2.706770 7.381360 -20.209400 -22.291500 -0.000108 -0.000004 33.444300 5.511740 -7.012210 -2.192480 -6.469440 -0.000000 174.471000 -11.583200 -32.041000 39.081100 -0.000007 -0.000012 0.240410 -0.416373 30.002000 40.985400 -0.000006 -0.000013 3.355810 8.996810 -61.206800 11.754300 -0.000000 0.000003 0.002193 0.112658 -12.008300 -2.192510 6.469440 -0.000001 170.367000 25.689900 -174.672000 -39.081100 -0.002282 -0.040193 -0.026239 0.054127 28.626400 -40.985400 0.000008 0.000006 -23.048800 -21.249100 -76.365500 -11.754300 -0.000006 -0.000006 0.002488 0.084080 -13.163400
0.000000 0.000000 0.000000 0.000000 0.000000 -0.000000 -4.378640 89.461400 514.812000 -92.709800 13.333900 176.628000 15.735700 0.000005 -0.000001 113.346000 87.271200 -113.653000 8.984550 -0.406207 -0.000000 -2.750120 2.190170 -0.561999 16.377300 -0.000001 -0.000001 3.811530 6.070800 -2.433360 6.456720 -0.000001 -0.000000 2.056810 5.930290 -3.572320 12.994200 -0.242716 4.980390 -93.273100 8.150850 -68.033000 5.348090 -0.000007 -0.000001 -69.373500 -4.869710 7.544920 24.328600 0.000019 0.000005 8.691550 23.099500 -21.288200 22.291600 -0.000001 0.000005 47.881100 4.569410 15.437000 12.994500 -0.242716 -4.980390 88.846500 4.064620 -74.142200 -5.348130 -0.000001 -0.000004 -73.467900 19.195700 -6.546770 -24.328900 0.000322 -0.000009 1.797060 6.452740 -15.605600 -22.291500 -0.000108 -0.000004 33.970100 5.465800 -5.216660 -2.192480 -6.469440 -0.000000 174.711000 -6.527340 -30.856000 39.081100 -0.000007 -0.000012 0.304927 -0.454387 33.864900 40.985400 -0.000006 -0.000013 3.522580 5.799340 -63.223900 11.754300 -0.000000 0.000003 0.001322 0.141193 -10.851000 -2.192510 6.469440 -0.000001 168.903000 22.914600 -176.092000 -39.081100 -0.002282 -0.040193 0.053902 -0.072885 34.776000 -40.985400 0.000008 0.000006 -21.357400 -25.551100 -71.468600 -11.754300 -0.000006 -0.000006 -0.000242 -0.003972 -16.735100
0.000000 0.000000 0.000000 0.000000 0.000000 -0.000000 -4.831480 89.269700 510.728000 -93.388900 12.161900 177.508000 15.735700 0.000005 -0.000001 105.236000 87.494800 -105.611000 8.984550 -0.406207 -0.000000 -2.927590 1.351200 -0.716386 16.377300 -0.000001 -0.000001 4.211890 5.677800 -2.436980 6.456720 -0.000001 -0.000000 2.194000 5.791440 -3.386070 12.994200 -0.242716 4.980390 -93.162900 8.041540 -68.445100 5.348090 -0.000007 -0.000001 -67.939500 -4.105160 4.854550 24.328600 0.000019 0.000005 9.525150 23.457900 -22.855700 22.291600 -0.000001 0.000005 47.979200 4.562350 15.556800 12.994500 -0.242716 -4.980390 88.790600 4.056020 -73.381600 -5.348130 -0.000001 -0.000004 -70.841300 11.538900 -1.714600 -24.328900 0.000322 -0.000009 1.069480 4.309680 -13.962900 -22.291500 -0.000108 -0.000004 34.481300 5.430820 -3.969000 -2.192480 -6.469440 -0.000000 173.783000 -3.919850 -28.627600 39.081100 -0.000007 -0.000012 0.388334 -0.525343 36.472500 40.985400 -0.000006 -0.000013 4.176710 4.428430 -66.368200 11.754300 -0.000000 0.000003 0.000889 0.151001 -10.452900 -2.192510 6.469440 -0.000001 168.188000 19.693300 -179.088000 -39.081100 -0.002282 -0.040193 0.164445 -0.178923 42.012300 -40.985400 0.000008 0.000006 -11.251800 -31.659800 -60.081900 -11.754300 -0.000006 -0.000006 -0.008161 -0.089342 -20.211300
0.000000 0.000000 0.000000 0.000000 0.000000 -0.000000 -5.224980 89.296500 506.856000 -94.065900 11.574700 178.873000 15.735700 0.000005 -0.000001 96.521100 87.370800 -97.044500 8.984550 -0.406207 -0.000000 -2.538540 0.644048 -1.032460 16.377300 -0.000001 -0.000001 4.322410 5.580320 -2.459700 6.456720 -0.000001 -0.000000 2.306020 5.849570 -3.079050 12.994200 -0.242716 4.980390 -93.134300 8.104870 -68.773900 5.348090 -0.000007 -0.000001 -66.059200 -5.563330 2.742440 24.328600 0.000019 0.000005 11.676600 23.529500 -27.368500 22.291600 -0.000001 0.000005 48.363400 4.564850 15.514600 12.994500 -0.242716 -4.980390 88.716800 4.151250 -72.806200 -5.348130 -0.000001 -0.000004 -66.834500 5.446750 2.312690 -24.328900 0.000322 -0.000009 0.829069 3.644630 -12.840200 -22.291500 -0.000108 -0.000004 34.795200 5.405110 -3.104930 -2.192480 -6.469440 -0.000000 172.464000 -4.076030 -24.991500 39.081100 -0.000007 -0.000012 0.480794 -0.632450 37.243500 40.985400 -0.000006 -0.000013 5.243450 4.709150 -69.312000 11.754300 -0.000000 0.000003 0.000657 0.155723 -10.261300 -2.192510 6.469440 -0.000001 168.212000 14.794300 176.715000 -39.081100 -0.002282 -0.040193 0.235389 -0.194371 50.060900 -40.985400 0.000008 0.000006 0.750714 -34.025800 -44.419800 -11.754300 -0.000006 -0.000006 0.002405 0.068453 -13.796900
